<svg width="73" height="40" viewBox="0 0 73 40" fill="none" xmlns="http://www.w3.org/2000/svg">
<g clip-path="url(#clip0_187_4135)">
<path fill-rule="evenodd" clip-rule="evenodd" d="M4.65466 9.33335C8.77501 1.46958 16.1011 -2.28984 26.5312 2.17393C28.979 3.37393 31.4878 5.34494 34.7806 7.75364C38.0124 9.64929 41.6856 10.5073 43.8256 9.14494C38.7035 14.0203 34.2579 15.5739 29.3448 13.2667L23.0554 37.1652C22.5792 39.0116 21.6616 39.7391 20.4479 39.7102L11.67 39.7131C12.5905 39.3855 13.1422 38.3971 13.6358 36.8L19.8236 13.6638C20.3259 12.0783 21.5339 11.258 23.2006 11.1768H25.1258C23.2471 10.2087 21.3713 9.22321 19.4345 8.31886C13.6765 5.90147 8.77792 6.32176 4.65466 9.33335ZM0.261353 39.7131C1.18183 39.3855 1.73353 38.3971 2.22716 36.8L8.41495 13.6638C8.91729 12.0783 10.1252 11.258 11.792 11.1768L20.1837 11.1797C18.999 11.3594 18.2266 12.3478 17.9391 13.258L11.6468 37.1652C11.1706 39.0116 10.253 39.7391 9.03925 39.7102L0.261353 39.7131ZM31.5255 24.287V19.6754C31.5255 19.1449 31.5023 18.7739 31.4558 18.5536C31.3978 18.3478 31.2439 18.1942 31.0058 18.0957V18.0725H33.3142V18.0957C33.2068 18.1391 33.1139 18.2029 33.0355 18.2899C32.9629 18.3768 32.9135 18.4754 32.8845 18.5855C32.8554 18.6957 32.8351 18.7797 32.8264 18.8377C32.8206 18.8957 32.8177 18.9536 32.8177 19.0145L32.7944 19.6783V24.2899C32.7944 24.8638 32.8264 25.2551 32.8903 25.458C32.9541 25.6609 33.0964 25.8232 33.3171 25.9391V25.9855H31.0087V25.9391C31.2381 25.858 31.3832 25.6899 31.4413 25.4435C31.4965 25.1913 31.5255 24.8058 31.5255 24.287ZM34.4815 24.8957V21.5681V21.4261C34.4815 20.9652 34.3189 20.6522 33.9966 20.487V20.4377C34.3741 20.4377 34.6238 20.4464 34.737 20.4609C34.92 20.4609 35.0797 20.4464 35.2161 20.4116C35.3555 20.3797 35.46 20.3363 35.5355 20.2928H35.5675V21.2319C35.9537 20.6029 36.517 20.2928 37.2516 20.2928H37.3271C37.7307 20.2928 38.0879 20.3797 38.3986 20.5536C38.7093 20.7276 38.9735 20.9855 39.1971 21.3247C39.4294 20.9884 39.6995 20.7305 40.0072 20.5565C40.3121 20.3797 40.6519 20.2928 41.0293 20.2928H41.1774C41.8859 20.2928 42.4144 20.4638 42.7541 20.8087C43.12 21.1884 43.3 21.8377 43.3 22.7594V25.0899C43.3 25.5362 43.483 25.8174 43.8459 25.9363V25.9826H41.735V25.9363C41.944 25.8232 42.0776 25.6841 42.1386 25.5218C42.185 25.3623 42.2112 25.1652 42.2112 24.9247V23.0696C42.2112 21.7391 41.7437 21.0754 40.8116 21.0754C40.5764 21.0754 40.3731 21.1131 40.196 21.1913C40.0218 21.2667 39.8766 21.3768 39.7662 21.5247C39.5485 21.8 39.441 22.2725 39.441 22.9333V24.7218C39.441 24.7594 39.441 24.7913 39.441 24.8232C39.4294 24.8696 39.4207 24.9044 39.4178 24.9305C39.4178 25.1855 39.4613 25.3971 39.5514 25.5681C39.6414 25.742 39.7604 25.8638 39.9172 25.9391V25.9855H37.8788V25.9391C38.1953 25.7391 38.3521 25.4348 38.3521 25.0232V22.9797C38.3521 22.4696 38.2447 22.029 38.0327 21.6522C37.9224 21.4667 37.7772 21.3275 37.6001 21.229C37.4229 21.1275 37.2168 21.0783 36.9729 21.0783H36.8771C36.4792 21.0783 36.1656 21.2116 35.9421 21.4783C35.6923 21.7739 35.5675 22.1478 35.5675 22.6058V24.9507C35.5675 25.4551 35.7156 25.7855 36.0117 25.9391V25.9855H33.9937V25.9391C34.3189 25.771 34.4786 25.5275 34.4786 25.2145V24.8957H34.4815ZM44.7403 27.3913V21.7536V21.5478C44.7403 21.0145 44.5835 20.6638 44.267 20.4928V20.4435C44.6329 20.4435 44.8768 20.4522 45.0074 20.4667C45.202 20.4667 45.3675 20.4522 45.504 20.4174C45.6404 20.3855 45.7421 20.342 45.8059 20.2986H45.8292V21.1507C46.0382 20.8725 46.3344 20.658 46.7235 20.5073C47.0807 20.3681 47.4436 20.3015 47.8182 20.3015H47.9373C48.1899 20.3015 48.428 20.3363 48.6574 20.4029C48.8868 20.4696 49.1162 20.5739 49.3456 20.7102C49.7608 20.9623 50.0889 21.3276 50.3299 21.8145C50.4199 22.0087 50.4896 22.2174 50.5361 22.4406C50.5825 22.6609 50.6058 22.8986 50.6058 23.1478V23.4754C50.5419 24.2435 50.237 24.8783 49.6911 25.3797C49.1452 25.8812 48.4977 26.1334 47.7456 26.1334C47.4088 26.1334 47.0865 26.0841 46.7787 25.9884L46.1457 25.0029C46.3373 25.1102 46.5406 25.1971 46.7526 25.258C46.9616 25.3189 47.2026 25.3478 47.4669 25.3478C47.7282 25.3478 47.9634 25.3102 48.1754 25.2348C48.3873 25.1594 48.5848 25.0522 48.7648 24.9015C49.1045 24.6261 49.3049 24.1971 49.363 23.6174L49.3862 23.2464C49.3862 22.6928 49.241 22.2203 48.9478 21.829C48.6022 21.3623 48.1347 21.1304 47.5424 21.1304C47.0168 21.1304 46.5987 21.287 46.2909 21.6058C45.9802 21.9218 45.8263 22.2667 45.8263 22.6348V27.0783C45.8263 27.5305 45.8495 27.8348 45.896 27.9884C45.9453 28.142 46.0789 28.2841 46.2996 28.4087V28.4551H44.2583V28.4087C44.5748 28.2348 44.7316 27.9391 44.7316 27.516V27.3913H44.7403ZM51.3811 23.171V23.0957C51.3811 22.3652 51.6482 21.7131 52.1854 21.1363C52.7226 20.5623 53.4746 20.2725 54.4503 20.2725C54.9468 20.2725 55.4085 20.3855 55.8295 20.6174C56.2506 20.8464 56.5816 21.1681 56.8168 21.5826C57.0433 21.9797 57.1536 22.4464 57.1536 22.9797V23.0261H52.6964C52.6964 23.5768 52.8707 24.0841 53.222 24.5362C53.5734 24.9913 54.1105 25.2522 54.8336 25.3189C54.9613 25.3189 55.0601 25.3276 55.1385 25.3449C55.2923 25.3449 55.4549 25.3305 55.6234 25.3015C55.7918 25.2725 55.9747 25.2319 56.1693 25.1797C56.5235 25.0783 56.8458 24.9247 57.1304 24.7218H57.1536L56.5613 25.8348C55.995 26.0464 55.4346 26.1507 54.8829 26.1507C53.945 26.1507 53.1262 25.8841 52.4293 25.3507C51.7295 24.8174 51.3811 24.0899 51.3811 23.171ZM52.7458 22.3131H55.8905C55.8905 22.1218 55.847 21.9478 55.7627 21.7971C55.6785 21.6435 55.5566 21.5131 55.4056 21.4029C55.2546 21.2957 55.092 21.2116 54.9207 21.1565C54.7494 21.1015 54.5606 21.0754 54.3603 21.0754C53.9741 21.0754 53.6198 21.1855 53.3062 21.4029C52.9926 21.6232 52.8068 21.9276 52.7458 22.3131ZM58.1786 24.9971V21.5449C58.1786 21.2377 58.1554 21.0087 58.1089 20.858C58.048 20.7189 57.9231 20.5971 57.7285 20.4899V20.4406H58.0422L58.5648 20.4319C58.7681 20.4319 58.9162 20.4174 59.0149 20.3884C59.1223 20.3768 59.2007 20.3449 59.2472 20.2957H59.2936V21.2C59.4766 20.8522 59.7176 20.6203 60.0283 20.4986C60.3332 20.3797 60.7136 20.3189 61.1665 20.3189V21.4522C61.062 21.3073 60.8558 21.2348 60.5568 21.2348C60.4464 21.2348 60.2809 21.258 60.0573 21.3044C59.5463 21.4754 59.2907 21.9855 59.2907 22.8319V24.9739C59.2907 25.2116 59.3256 25.4058 59.3924 25.5478C59.4475 25.6899 59.5695 25.8203 59.764 25.9363V25.9826H57.7227V25.9363C57.9347 25.829 58.0625 25.6986 58.1147 25.5478C58.1583 25.3913 58.1786 25.2087 58.1786 24.9971ZM62.7665 18.2174C62.9843 18.2174 63.1643 18.2899 63.3124 18.4348C63.4576 18.5797 63.5302 18.7565 63.5302 18.9652C63.5302 19.1739 63.4547 19.3507 63.3066 19.4986C63.1556 19.6464 62.9755 19.7218 62.7665 19.7218C62.5574 19.7218 62.3803 19.6464 62.2322 19.4928C62.087 19.3391 62.0144 19.1652 62.0144 18.9623C62.0144 18.7623 62.0841 18.5913 62.2235 18.4377C62.36 18.2928 62.54 18.2174 62.7665 18.2174ZM62.267 24.9971V21.4522C62.267 20.9623 62.1161 20.6435 61.817 20.4899V20.4406C62.1277 20.4406 62.3425 20.4493 62.4587 20.4638C62.691 20.4638 62.8797 20.4435 63.022 20.4058C63.1643 20.3652 63.2688 20.3131 63.3385 20.2464H63.385V24.7536C63.385 25.087 63.4111 25.3362 63.4576 25.5044C63.504 25.6725 63.6405 25.8145 63.8612 25.9333L63.8379 25.9797H61.8199V25.9333C62.116 25.7739 62.267 25.4609 62.267 24.9971ZM64.2822 24.4812V24.4319C64.2822 23.8232 64.6423 23.3507 65.3653 23.0232C65.5366 22.9449 65.827 22.8609 66.2306 22.7739C66.6371 22.687 66.9362 22.6116 67.1337 22.5536C67.3514 22.5015 67.5344 22.4203 67.6795 22.3102C67.7434 22.2667 67.7957 22.2029 67.8363 22.1131C67.8799 22.0261 67.8973 21.9275 67.8973 21.8174C67.8973 21.5739 67.7725 21.3913 67.5227 21.2667C67.2672 21.1536 67.003 21.0957 66.73 21.0957C66.2538 21.0957 65.705 21.2522 65.0807 21.5652L65.8822 20.3652C65.9141 20.3652 65.9431 20.3652 65.978 20.3652C66.0215 20.3536 66.0506 20.3449 66.068 20.342L66.3003 20.3189L66.4977 20.2957H66.7068C67.3805 20.2957 67.9322 20.4464 68.3706 20.7478C68.8091 21.0493 69.0269 21.5102 69.0269 22.1333V24.229C69.0269 24.6058 69.0994 24.8725 69.2446 25.0319C69.3172 25.1189 69.4218 25.1884 69.5553 25.2406C69.6918 25.2957 69.8544 25.3218 70.0461 25.3218L69.5002 26.1565C68.9485 26.1102 68.5448 25.9797 68.2951 25.771C68.0338 25.571 67.9031 25.2638 67.9031 24.8522V22.9797C67.6941 23.1044 67.3456 23.2232 66.8607 23.3333C66.3729 23.4464 66.0244 23.5652 65.8096 23.6899C65.5976 23.8145 65.4902 24.0348 65.4902 24.3565C65.4902 24.6609 65.6063 24.8986 65.8386 25.0667C65.9547 25.1536 66.097 25.2203 66.2567 25.2696C66.4164 25.3189 66.5907 25.3449 66.7765 25.3449C66.9333 25.3449 67.0756 25.3333 67.1946 25.3131C67.3166 25.2899 67.485 25.2522 67.7028 25.1913L66.9827 26.0841C66.8578 26.0986 66.7446 26.1102 66.6516 26.1189C66.5587 26.1275 66.4658 26.1304 66.37 26.1304C65.7573 26.1304 65.255 25.9681 64.8659 25.6435C64.4768 25.316 64.2822 24.9275 64.2822 24.4812ZM70.9956 24.5971V19.1797C70.9956 18.8406 70.9723 18.6 70.9259 18.4638C70.8823 18.3247 70.7633 18.2 70.5687 18.0957V18.0754L71.1495 18.0638H71.2337H71.2976C71.4573 18.0638 71.5676 18.0551 71.6373 18.0406C71.6779 18.0406 71.7215 18.0377 71.7592 18.0261C71.7999 18.0174 71.8522 18 71.9189 17.9768C71.9857 17.9565 72.0409 17.916 72.0845 17.858H72.1077V24.9015C72.1077 25.1536 72.1309 25.3565 72.1774 25.516C72.2267 25.6725 72.3603 25.8145 72.581 25.942V25.9884H70.5397V25.942C70.7546 25.8087 70.8823 25.6696 70.9259 25.5247C70.9723 25.3739 70.9956 25.0667 70.9956 24.5971ZM31.6533 36.145V30.2841H30.6341C29.9488 30.2841 29.4494 30.4406 29.13 30.7478H29.0835L29.5104 29.3218H29.5568C29.6614 29.3826 29.8443 29.4174 30.1085 29.4174H34.7632C35.0797 29.4174 35.2887 29.3855 35.3933 29.3218H35.4455L35.0651 30.7478H35.0187C34.9083 30.4406 34.5657 30.2841 33.9966 30.2841H32.8728V36.0986C32.8728 36.6464 33.0877 37.0377 33.5204 37.2783V37.3247H31.1016V37.2783C31.4704 37.1507 31.6533 36.7739 31.6533 36.145ZM33.9559 34.571C33.9559 34.3304 33.9879 34.0928 34.0459 33.8638C34.1098 33.6348 34.1998 33.4 34.3247 33.1623C34.5483 32.7189 34.9112 32.3536 35.4049 32.0667C35.9014 31.7826 36.488 31.6377 37.1645 31.6377H37.2603C37.7511 31.6377 38.2157 31.7449 38.6483 31.9594C39.1158 32.2 39.4904 32.542 39.775 32.9884C40.0624 33.4377 40.2018 33.942 40.2018 34.5102C40.2018 35.0435 40.0566 35.5362 39.7633 35.9942C39.473 36.4522 39.0781 36.8116 38.5873 37.0754C38.0937 37.3391 37.5797 37.4667 37.0455 37.4667C36.0901 37.4667 35.3352 37.1797 34.7835 36.6029C34.2318 36.029 33.9559 35.3739 33.9559 34.6377V34.571ZM35.1958 34.4145C35.1958 34.8261 35.2771 35.2 35.4368 35.5449C35.5965 35.8899 35.823 36.1681 36.1163 36.3855C36.4096 36.6 36.7203 36.7073 37.0484 36.7073L37.1442 36.6841C37.4346 36.6841 37.6901 36.6319 37.9166 36.5275C38.1431 36.4261 38.3347 36.2754 38.4915 36.0725C38.8022 35.6841 38.9561 35.2232 38.9561 34.687C38.9561 34.087 38.7819 33.5623 38.4305 33.1044C38.0821 32.6493 37.6204 32.4203 37.0484 32.4203H37.0193C36.8045 32.4203 36.5983 32.4609 36.395 32.542C36.1918 32.6203 35.9943 32.7421 35.794 32.9015C35.3962 33.2116 35.1958 33.716 35.1958 34.4145ZM41.3488 36.4087V30.4232C41.3488 29.9536 41.1978 29.6232 40.8987 29.4377V29.4145H41.8192C42.1211 29.4145 42.3186 29.342 42.4173 29.1971H42.4406V36.4812C42.8006 36.571 43.1345 36.6319 43.4365 36.6638C44.0579 36.6638 44.5777 36.4754 44.9929 36.0986C45.3617 35.7652 45.5504 35.2609 45.5504 34.5855V34.4145C45.5504 34.0899 45.504 33.8058 45.411 33.5623C45.3181 33.3189 45.1816 33.1218 45.0045 32.9681C44.6561 32.6812 44.2379 32.5392 43.753 32.5392C43.3175 32.5392 42.9777 32.6232 42.7338 32.7913L43.3668 31.7594C43.7124 31.6783 44.0085 31.6348 44.2525 31.6348C44.7519 31.6348 45.202 31.7681 45.6085 32.0377C46.0121 32.3044 46.3199 32.6609 46.5232 33.1015C46.7003 33.4986 46.7903 33.9363 46.7903 34.4232V34.5942C46.7903 34.8696 46.7467 35.1333 46.6625 35.3855C46.5783 35.6348 46.4593 35.8754 46.3025 36.1102C46.0237 36.5333 45.6201 36.8696 45.0858 37.116C44.8274 37.2348 44.5428 37.3247 44.2292 37.3913C43.9156 37.458 43.5817 37.4928 43.2275 37.4928C43.1287 37.4928 43.0503 37.4899 42.9893 37.487C42.7019 37.4667 42.5393 37.458 42.4986 37.458C42.3738 37.458 42.2838 37.4551 42.2228 37.4464C42.1589 37.4377 41.9527 37.4029 41.6014 37.3333L40.9887 37.2464V37.2232C41.2268 37.1218 41.3459 36.8812 41.3459 36.5015V36.4087H41.3488ZM47.8472 35.8232V35.7739C47.8472 35.1652 48.2073 34.6957 48.9303 34.3652C49.1017 34.287 49.3891 34.2029 49.7985 34.116C50.2051 34.029 50.5041 33.9536 50.6987 33.8957C50.9165 33.8435 51.0994 33.7623 51.2446 33.6551C51.3085 33.6145 51.3607 33.5478 51.4014 33.458C51.4449 33.371 51.4653 33.2725 51.4653 33.1623C51.4653 32.9189 51.3404 32.7363 51.0907 32.6116C50.8352 32.4957 50.5709 32.4406 50.2951 32.4406C49.8189 32.4406 49.2701 32.5971 48.6458 32.9102L49.4472 31.7073C49.4791 31.7073 49.5111 31.7073 49.543 31.7073C49.5866 31.6957 49.6156 31.687 49.633 31.687L49.8624 31.6609L50.0599 31.6377H50.2689C50.9426 31.6377 51.4943 31.7884 51.9328 32.0899C52.3712 32.3913 52.589 32.8493 52.589 33.4725V35.5681C52.589 35.9449 52.6616 36.2116 52.8068 36.371C52.8794 36.458 52.981 36.5276 53.1175 36.5797C53.2539 36.6348 53.4165 36.6609 53.6082 36.6609L53.0623 37.4928C52.5106 37.4464 52.107 37.316 51.8573 37.1044C51.5959 36.9044 51.4653 36.5971 51.4653 36.1855V34.3131C51.2562 34.4406 50.9077 34.5565 50.4228 34.6696C49.935 34.7797 49.5866 34.8986 49.3717 35.0261C49.1597 35.1507 49.0523 35.3739 49.0523 35.6957C49.0523 36 49.1684 36.2348 49.4036 36.4029C49.5198 36.4899 49.6621 36.5594 49.8218 36.6058C49.9815 36.6551 50.1557 36.6812 50.3415 36.6812C50.4983 36.6812 50.6377 36.6696 50.7597 36.6493C50.8816 36.6261 51.05 36.5884 51.2678 36.5305L50.5506 37.4232C50.4257 37.4377 50.3125 37.4493 50.2196 37.458C50.1296 37.4667 50.0337 37.4696 49.9379 37.4696C49.3281 37.4696 48.8258 37.3073 48.4367 36.9826C48.0418 36.658 47.8472 36.2725 47.8472 35.8232ZM53.9828 34.687C53.9828 34.0232 54.1483 33.458 54.4735 32.9942C54.7987 32.5304 55.2285 32.1884 55.7569 31.9681C56.2883 31.7449 56.8632 31.6348 57.4846 31.6348C57.9376 31.6348 58.3703 31.6841 58.7826 31.7797V33.0058H58.7361C58.3848 32.6261 57.8941 32.4377 57.264 32.4377C56.7035 32.4377 56.2215 32.6145 55.8208 32.9739C55.423 33.3276 55.2227 33.8145 55.2227 34.4348V34.4812C55.2227 34.7855 55.2865 35.0609 55.4143 35.3131C55.545 35.5652 55.7337 35.8029 55.9863 36.0261C56.4858 36.4638 57.0607 36.6841 57.714 36.6841C58.048 36.6841 58.3616 36.6348 58.6548 36.5391C58.951 36.4406 59.2414 36.2957 59.523 36.0986H59.5608L58.9307 37.2493C58.4312 37.3971 57.926 37.4725 57.412 37.4725C56.4596 37.4725 55.6495 37.2116 54.9845 36.6928C54.3167 36.171 53.9828 35.5044 53.9828 34.687ZM59.8279 34.687C59.8279 34.0232 59.9905 33.458 60.3187 32.9942C60.6439 32.5304 61.0736 32.1884 61.6021 31.9681C62.1335 31.7449 62.7084 31.6348 63.3298 31.6348C63.7828 31.6348 64.2183 31.6841 64.6278 31.7797V33.0058H64.5813C64.2299 32.6261 63.7392 32.4377 63.1091 32.4377C62.5487 32.4377 62.0667 32.6145 61.666 32.9739C61.2682 33.3276 61.0678 33.8145 61.0678 34.4348V34.4812C61.0678 34.7855 61.1317 35.0609 61.2595 35.3131C61.3901 35.5652 61.5789 35.8029 61.8315 36.0261C62.3309 36.4638 62.9059 36.6841 63.5592 36.6841C63.8902 36.6841 64.2038 36.6348 64.5 36.5391C64.7962 36.4406 65.0865 36.2957 65.3682 36.0986H65.403L64.7729 37.2493C64.2735 37.3971 63.7683 37.4725 63.2543 37.4725C62.3019 37.4725 61.4918 37.2116 60.8268 36.6928C60.1619 36.171 59.8279 35.5044 59.8279 34.687ZM65.8183 34.571C65.8183 34.3304 65.8473 34.0928 65.9083 33.8638C65.9722 33.6348 66.0622 33.4 66.1841 33.1623C66.4077 32.7189 66.7707 32.3536 67.2643 32.0667C67.7608 31.7826 68.3474 31.6377 69.024 31.6377H69.1198C69.6105 31.6377 70.0751 31.7449 70.5078 31.9594C70.9753 32.2 71.3498 32.542 71.6373 32.9884C71.9219 33.4377 72.0641 33.942 72.0641 34.5102C72.0641 35.0435 71.919 35.5362 71.6257 35.9942C71.3353 36.4522 70.9404 36.8116 70.4497 37.0754C69.956 37.3391 69.4421 37.4667 68.9078 37.4667C67.9525 37.4667 67.1975 37.1797 66.6458 36.6029C66.0912 36.029 65.8183 35.3739 65.8183 34.6377V34.571ZM67.0582 34.4145C67.0582 34.8261 67.1395 35.2 67.2992 35.5449C67.4589 35.8899 67.6853 36.1681 67.9786 36.3855C68.2719 36.6 68.5826 36.7073 68.9107 36.7073L69.0065 36.6841C69.2969 36.6841 69.5524 36.6319 69.7789 36.5275C70.0054 36.4261 70.1971 36.2754 70.3539 36.0725C70.6646 35.6841 70.8185 35.2232 70.8185 34.687C70.8185 34.087 70.6442 33.5623 70.2929 33.1044C69.9415 32.6493 69.4827 32.4203 68.9107 32.4203H68.8817C68.6668 32.4203 68.4606 32.4609 68.2574 32.542C68.0541 32.6203 67.8567 32.7421 67.6592 32.9015C67.2585 33.2116 67.0582 33.716 67.0582 34.4145Z" fill="#98092D"/>
</g>
<defs>
<clipPath id="clip0_187_4135">
<rect width="72.5926" height="40" fill="white"/>
</clipPath>
</defs>
</svg>
