<svg width="24" height="24" viewBox="0 0 24 24" fill="none" xmlns="http://www.w3.org/2000/svg">
<path d="M12 0C5.38298 0 0 5.38298 0 12C0 18.617 5.38298 24 12 24C18.617 24 24 18.617 24 12C24 5.38298 18.617 0 12 0ZM12 22C6.486 22 2.00002 17.514 2.00002 12C2.00002 6.486 6.486 2.00002 12 2.00002C17.514 2.00002 22 6.486 22 12C22 17.514 17.514 22 12 22Z" fill="#6CB825"/>
<path d="M11.7513 16.1699C11.0983 16.1809 10.5723 16.7069 10.5613 17.3599C10.5603 17.38 10.5603 17.401 10.5613 17.4209C10.5843 18.0779 11.1343 18.5919 11.7913 18.5699H11.7513C12.4113 18.5589 12.9413 18.0209 12.9413 17.3599C12.9253 16.7089 12.4023 16.1859 11.7513 16.1699Z" fill="#6CB825"/>
<path d="M11.9807 5.46999C10.5707 5.42799 9.20867 5.98398 8.23067 6.99999C8.11765 7.14197 8.05765 7.31897 8.06065 7.50001C8.06567 7.94302 8.41765 8.304 8.86067 8.31999C9.06669 8.32097 9.26567 8.24597 9.42069 8.10999C10.0407 7.46701 10.8977 7.10597 11.7907 7.11001C13.1407 7.11001 13.7907 7.83999 13.7907 8.7C13.7907 10.54 10.5207 10.77 10.5207 13.16C10.5207 13.74 10.8807 14.81 11.6307 14.81C11.6367 14.81 11.6437 14.81 11.6507 14.81C12.0537 14.81 12.3807 14.483 12.3807 14.08C12.3807 13.81 12.1907 13.58 12.1907 13.31C12.1907 11.51 15.7107 11.26 15.7907 8.47004C15.7907 6.77002 14.3507 5.46999 11.9807 5.46999Z" fill="#6CB825"/>
</svg>
