<svg width="21" height="20" viewBox="0 0 21 20" fill="none" xmlns="http://www.w3.org/2000/svg">
<path d="M17.1663 10V18.3333H3.83301V10" stroke="white" stroke-width="1.5" stroke-linecap="round" stroke-linejoin="round"/>
<path d="M18.8337 5.83337H2.16699V10H18.8337V5.83337Z" stroke="white" stroke-width="1.5" stroke-linecap="round" stroke-linejoin="round"/>
<path d="M10.5 18.3334V5.83337" stroke="white" stroke-width="1.5" stroke-linecap="round" stroke-linejoin="round"/>
<path d="M10.5003 5.83329H6.75033C6.19779 5.83329 5.66789 5.6138 5.27719 5.2231C4.88649 4.8324 4.66699 4.30249 4.66699 3.74996C4.66699 3.19742 4.88649 2.66752 5.27719 2.27682C5.66789 1.88612 6.19779 1.66663 6.75033 1.66663C9.66699 1.66663 10.5003 5.83329 10.5003 5.83329Z" stroke="white" stroke-width="1.5" stroke-linecap="round" stroke-linejoin="round"/>
<path d="M10.5 5.83329H14.25C14.8025 5.83329 15.3324 5.6138 15.7231 5.2231C16.1138 4.8324 16.3333 4.30249 16.3333 3.74996C16.3333 3.19742 16.1138 2.66752 15.7231 2.27682C15.3324 1.88612 14.8025 1.66663 14.25 1.66663C11.3333 1.66663 10.5 5.83329 10.5 5.83329Z" stroke="white" stroke-width="1.5" stroke-linecap="round" stroke-linejoin="round"/>
</svg>
