<svg width="16" height="16" viewBox="0 0 16 16" fill="none" xmlns="http://www.w3.org/2000/svg">
<circle cx="8" cy="8" r="7.5" stroke="#6CB825"/>
<path d="M7.8329 10.7803C7.39755 10.7876 7.0469 11.1383 7.03955 11.5736C7.0389 11.587 7.0389 11.601 7.03955 11.6143C7.0549 12.0523 7.42155 12.3949 7.85955 12.3803H7.8329C8.2729 12.3729 8.62624 12.0143 8.62624 11.5736C8.61555 11.1396 8.2669 10.7909 7.8329 10.7803Z" fill="#6CB825"/>
<path d="M7.98646 3.64699C7.04646 3.61899 6.13846 3.98964 5.48646 4.66699C5.41112 4.76164 5.37112 4.87964 5.37312 5.00033C5.37646 5.29567 5.61112 5.53633 5.90646 5.54698C6.04381 5.54764 6.17646 5.49764 6.27981 5.40698C6.69315 4.97833 7.26446 4.73764 7.85981 4.74033C8.75981 4.74033 9.19315 5.22699 9.19315 5.80033C9.19315 7.02698 7.01315 7.18033 7.01315 8.77367C7.01315 9.16033 7.25315 9.87367 7.75315 9.87367C7.75715 9.87367 7.76181 9.87367 7.76649 9.87367C8.03515 9.87367 8.25315 9.65567 8.25315 9.38701C8.25315 9.20701 8.12649 9.05367 8.12649 8.87367C8.12649 7.67367 10.4732 7.50701 10.5265 5.64702C10.5265 4.51367 9.56646 3.64699 7.98646 3.64699Z" fill="#6CB825"/>
</svg>
