<svg width="146" height="80" viewBox="0 0 146 80" fill="none" xmlns="http://www.w3.org/2000/svg">
<g clip-path="url(#clip0_43_3019)">
<path fill-rule="evenodd" clip-rule="evenodd" d="M9.30931 18.6669C17.55 2.93941 32.2021 -4.57944 53.0623 4.34809C57.958 6.74809 62.9756 10.6901 69.5612 15.5075C76.0248 19.2988 83.3712 21.0148 87.6512 18.2901C77.407 28.0408 68.5158 31.1481 58.6897 26.5336L46.1108 74.3307C45.1584 78.0235 43.3233 79.4785 40.8958 79.4206L23.34 79.4264C25.181 78.7713 26.2844 76.7945 27.2716 73.6003L39.6472 27.3278C40.6519 24.1568 43.0678 22.5162 46.4012 22.3539H50.2515C46.4941 20.4177 42.7426 18.4467 38.869 16.638C27.3529 11.8032 17.5558 12.6438 9.30931 18.6669ZM0.522705 79.4264C2.36365 78.7713 3.46706 76.7945 4.45432 73.6003L16.8299 27.3278C17.8346 24.1568 20.2505 22.5162 23.5839 22.3539L40.3673 22.3597C37.9979 22.7191 36.4531 24.6959 35.8782 26.5162L23.2936 74.3307C22.3411 78.0235 20.506 79.4785 18.0785 79.4206L0.522705 79.4264ZM63.0511 48.5742V39.351C63.0511 38.2901 63.0046 37.5481 62.9117 37.1075C62.7955 36.6959 62.4877 36.3887 62.0115 36.1916V36.1452H66.6284V36.1916C66.4136 36.2785 66.2277 36.4061 66.0709 36.58C65.9257 36.7539 65.827 36.951 65.7689 37.1713C65.7109 37.3916 65.6702 37.5597 65.6528 37.6756C65.6412 37.7916 65.6353 37.9075 65.6353 38.0293L65.5889 39.3568V48.58C65.5889 49.7278 65.6528 50.5104 65.7805 50.9162C65.9083 51.322 66.1929 51.6466 66.6342 51.8785V51.9713H62.0173V51.8785C62.4761 51.7162 62.7665 51.38 62.8826 50.8872C62.993 50.3829 63.0511 49.6119 63.0511 48.5742ZM68.963 49.7916V43.1365V42.8525C68.963 41.9307 68.6378 41.3046 67.9932 40.9742V40.8756C68.7481 40.8756 69.2476 40.893 69.4741 40.922C69.8399 40.922 70.1593 40.893 70.4323 40.8235C70.711 40.7597 70.9201 40.6727 71.0711 40.5858H71.135V42.464C71.9073 41.2061 73.034 40.5858 74.5033 40.5858H74.6543C75.4615 40.5858 76.1758 40.7597 76.7972 41.1075C77.4186 41.4553 77.9471 41.9713 78.3942 42.6496C78.8588 41.9771 79.3989 41.4611 80.0145 41.1133C80.6243 40.7597 81.3037 40.5858 82.0587 40.5858H82.3549C83.7719 40.5858 84.8288 40.9278 85.5083 41.6177C86.24 42.3771 86.6001 43.6756 86.6001 45.5191V50.18C86.6001 51.0727 86.966 51.6351 87.6919 51.8727V51.9655H83.4699V51.8727C83.888 51.6467 84.1552 51.3684 84.2771 51.0437C84.37 50.7249 84.4223 50.3307 84.4223 49.8495V46.1394C84.4223 43.4785 83.4873 42.151 81.6231 42.151C81.1527 42.151 80.7462 42.2263 80.392 42.3829C80.0435 42.5336 79.7532 42.7539 79.5325 43.0496C79.0969 43.6003 78.882 44.5452 78.882 45.8669V49.4438C78.882 49.5191 78.882 49.5829 78.882 49.6467C78.8588 49.7394 78.8414 49.809 78.8356 49.8611C78.8356 50.3713 78.9227 50.7945 79.1027 51.1365C79.2828 51.4843 79.5209 51.7278 79.8345 51.8785V51.9713H75.7577V51.8785C76.3907 51.4785 76.7043 50.8698 76.7043 50.0466V45.9597C76.7043 44.9394 76.4894 44.0583 76.0655 43.3046C75.8448 42.9336 75.5544 42.6553 75.2001 42.4582C74.8459 42.2553 74.4336 42.1568 73.9457 42.1568H73.7541C72.9585 42.1568 72.3313 42.4235 71.8841 42.9568C71.3847 43.5481 71.135 44.2959 71.135 45.2119V49.9017C71.135 50.9104 71.4311 51.5713 72.0235 51.8785V51.9713H67.9874V51.8785C68.6378 51.5423 68.9572 51.0553 68.9572 50.4293V49.7916H68.963ZM89.4806 54.7829V43.5075V43.0959C89.4806 42.0293 89.167 41.3278 88.534 40.9858V40.8872C89.2657 40.8872 89.7535 40.9046 90.0148 40.9336C90.4039 40.9336 90.735 40.9046 91.0079 40.8351C91.2809 40.7713 91.4841 40.6843 91.6119 40.5974H91.6583V42.3017C92.0765 41.7452 92.6688 41.3162 93.447 41.0148C94.1613 40.7365 94.8873 40.6032 95.6364 40.6032H95.8745C96.3798 40.6032 96.856 40.6727 97.3148 40.8061C97.7736 40.9394 98.2323 41.1481 98.6911 41.4206C99.5216 41.9249 100.178 42.6553 100.66 43.6293C100.84 44.0177 100.979 44.4351 101.072 44.8814C101.165 45.322 101.212 45.7974 101.212 46.2959V46.951C101.084 48.4872 100.474 49.7568 99.3822 50.7597C98.2904 51.7626 96.9953 52.2669 95.4912 52.2669C94.8176 52.2669 94.173 52.1684 93.5574 51.9771L92.2914 50.0061C92.6747 50.2206 93.0812 50.3945 93.5051 50.5162C93.9232 50.638 94.4053 50.6959 94.9337 50.6959C95.4564 50.6959 95.9268 50.6206 96.3507 50.4698C96.7747 50.3191 97.1696 50.1046 97.5296 49.8032C98.2091 49.2524 98.6098 48.3945 98.726 47.2351L98.7724 46.493C98.7724 45.3858 98.4821 44.4408 97.8955 43.6582C97.2044 42.7249 96.2694 42.2611 95.0847 42.2611C94.0336 42.2611 93.1973 42.5742 92.5817 43.2119C91.9603 43.8438 91.6525 44.5336 91.6525 45.2698V54.1568C91.6525 55.0611 91.699 55.6698 91.7919 55.9771C91.8906 56.2843 92.1578 56.5684 92.5992 56.8177V56.9104H88.5165V56.8177C89.1496 56.4698 89.4631 55.8785 89.4631 55.0322V54.7829H89.4806ZM102.762 46.3423V46.1916C102.762 44.7307 103.296 43.4264 104.371 42.2727C105.445 41.1249 106.949 40.5452 108.901 40.5452C109.894 40.5452 110.817 40.7713 111.659 41.2351C112.501 41.693 113.163 42.3365 113.634 43.1655C114.087 43.9597 114.307 44.893 114.307 45.9597V46.0524H105.393C105.393 47.1539 105.741 48.1684 106.444 49.0727C107.147 49.9829 108.221 50.5046 109.667 50.638C109.923 50.638 110.12 50.6553 110.277 50.6901C110.585 50.6901 110.91 50.6611 111.247 50.6032C111.584 50.5452 111.949 50.464 112.339 50.3597C113.047 50.1568 113.692 49.8496 114.261 49.4438H114.307L113.123 51.6698C111.99 52.093 110.869 52.3017 109.766 52.3017C107.89 52.3017 106.252 51.7684 104.859 50.7017C103.459 49.635 102.762 48.18 102.762 46.3423ZM105.492 44.6264H111.781C111.781 44.2438 111.694 43.8959 111.525 43.5945C111.357 43.2872 111.113 43.0264 110.811 42.8061C110.509 42.5916 110.184 42.4235 109.841 42.3133C109.499 42.2032 109.121 42.151 108.721 42.151C107.948 42.151 107.24 42.3713 106.612 42.8061C105.985 43.2466 105.614 43.8554 105.492 44.6264ZM116.357 49.9945V43.0901C116.357 42.4756 116.311 42.0177 116.218 41.7162C116.096 41.4379 115.846 41.1945 115.457 40.98V40.8814H116.084L117.13 40.864C117.536 40.864 117.832 40.8351 118.03 40.7771C118.245 40.7539 118.401 40.6901 118.494 40.5916H118.587V42.4003C118.953 41.7046 119.435 41.2409 120.057 40.9974C120.666 40.7597 121.427 40.638 122.333 40.638V42.9046C122.124 42.6148 121.712 42.4698 121.114 42.4698C120.893 42.4698 120.562 42.5162 120.115 42.609C119.093 42.951 118.581 43.9713 118.581 45.664V49.9481C118.581 50.4235 118.651 50.8119 118.785 51.0959C118.895 51.38 119.139 51.6409 119.528 51.8727V51.9655H115.445V51.8727C115.869 51.6582 116.125 51.3974 116.229 51.0959C116.317 50.7829 116.357 50.4177 116.357 49.9945ZM125.533 36.4351C125.969 36.4351 126.329 36.58 126.625 36.8698C126.915 37.1597 127.06 37.5133 127.06 37.9307C127.06 38.3481 126.909 38.7017 126.613 38.9974C126.311 39.293 125.951 39.4438 125.533 39.4438C125.115 39.4438 124.761 39.293 124.464 38.9858C124.174 38.6785 124.029 38.3307 124.029 37.9249C124.029 37.5249 124.168 37.1829 124.447 36.8756C124.72 36.5858 125.08 36.4351 125.533 36.4351ZM124.534 49.9945V42.9046C124.534 41.9249 124.232 41.2872 123.634 40.98V40.8814C124.255 40.8814 124.685 40.8988 124.917 40.9278C125.382 40.9278 125.759 40.8872 126.044 40.8119C126.329 40.7307 126.538 40.6264 126.677 40.493H126.77V49.5075C126.77 50.1742 126.822 50.6727 126.915 51.009C127.008 51.3452 127.281 51.6293 127.722 51.8669L127.676 51.9597H123.64V51.8669C124.232 51.5481 124.534 50.922 124.534 49.9945ZM128.564 48.9626V48.864C128.564 47.6467 129.285 46.7017 130.731 46.0466C131.073 45.8901 131.654 45.722 132.461 45.5481C133.274 45.3742 133.872 45.2235 134.267 45.1075C134.703 45.0032 135.069 44.8409 135.359 44.6206C135.487 44.5336 135.591 44.4061 135.673 44.2264C135.76 44.0524 135.795 43.8553 135.795 43.635C135.795 43.1481 135.545 42.7829 135.045 42.5336C134.534 42.3075 134.006 42.1916 133.46 42.1916C132.508 42.1916 131.41 42.5046 130.161 43.1307L131.764 40.7307C131.828 40.7307 131.886 40.7307 131.956 40.7307C132.043 40.7075 132.101 40.6901 132.136 40.6843L132.601 40.638L132.995 40.5916H133.414C134.761 40.5916 135.864 40.893 136.741 41.4959C137.618 42.0988 138.054 43.0206 138.054 44.2669V48.4582C138.054 49.2119 138.199 49.7452 138.489 50.064C138.634 50.2379 138.844 50.3771 139.111 50.4814C139.384 50.5916 139.709 50.6437 140.092 50.6437L139 52.3133C137.897 52.2206 137.09 51.9597 136.59 51.5423C136.068 51.1423 135.806 50.5278 135.806 49.7046V45.9597C135.388 46.209 134.691 46.4466 133.721 46.6669C132.746 46.893 132.049 47.1307 131.619 47.38C131.195 47.6293 130.98 48.0698 130.98 48.7133C130.98 49.322 131.213 49.7974 131.677 50.1336C131.909 50.3075 132.194 50.4408 132.513 50.5394C132.833 50.6379 133.181 50.6901 133.553 50.6901C133.867 50.6901 134.151 50.6669 134.389 50.6264C134.633 50.58 134.97 50.5046 135.406 50.3829L133.965 52.1684C133.716 52.1974 133.489 52.2206 133.303 52.2379C133.117 52.2553 132.932 52.2611 132.74 52.2611C131.515 52.2611 130.51 51.9365 129.732 51.2872C128.954 50.6322 128.564 49.8553 128.564 48.9626ZM141.991 49.1945V38.3597C141.991 37.6814 141.945 37.2003 141.852 36.9278C141.765 36.6496 141.527 36.4003 141.137 36.1916V36.151L142.299 36.1278H142.467H142.595C142.915 36.1278 143.135 36.1104 143.275 36.0814C143.356 36.0814 143.443 36.0756 143.518 36.0524C143.6 36.0351 143.704 36.0003 143.838 35.9539C143.971 35.9133 144.082 35.8321 144.169 35.7162H144.215V49.8032C144.215 50.3075 144.262 50.7133 144.355 51.0322C144.453 51.3452 144.721 51.6293 145.162 51.8843V51.9771H141.079V51.8843C141.509 51.6177 141.765 51.3394 141.852 51.0495C141.945 50.7481 141.991 50.1336 141.991 49.1945ZM63.3066 72.2901V60.5684H61.2682C59.8976 60.5684 58.8988 60.8814 58.26 61.4959H58.167L59.0207 58.6438H59.1136C59.3227 58.7655 59.6886 58.835 60.217 58.835H69.5263C70.1593 58.835 70.5775 58.7713 70.7865 58.6438H70.8911L70.1303 61.4959H70.0374C69.8167 60.8814 69.1314 60.5684 67.9932 60.5684H65.7457V72.1974C65.7457 73.293 66.1754 74.0756 67.0407 74.5568V74.6495H62.2032V74.5568C62.9407 74.3017 63.3066 73.5481 63.3066 72.2901ZM67.9119 69.1423C67.9119 68.6611 67.9757 68.1858 68.0919 67.7278C68.2197 67.2698 68.3997 66.8003 68.6494 66.3249C69.0966 65.438 69.8225 64.7075 70.8098 64.1336C71.8028 63.5655 72.9759 63.2756 74.329 63.2756H74.5207C75.5021 63.2756 76.4313 63.4901 77.2966 63.9191C78.2316 64.4003 78.9808 65.0843 79.5499 65.9771C80.1248 66.8756 80.4036 67.8843 80.4036 69.0206C80.4036 70.0872 80.1132 71.0727 79.5267 71.9887C78.9459 72.9046 78.1561 73.6235 77.1747 74.151C76.1874 74.6785 75.1595 74.9336 74.0909 74.9336C72.1803 74.9336 70.6704 74.3597 69.567 73.2061C68.4636 72.0582 67.9119 70.7481 67.9119 69.2756V69.1423ZM70.3916 68.8293C70.3916 69.6525 70.5542 70.4003 70.8736 71.0901C71.193 71.78 71.646 72.3365 72.2326 72.7713C72.8191 73.2003 73.4405 73.4148 74.0967 73.4148L74.2884 73.3684C74.8691 73.3684 75.3802 73.264 75.8332 73.0553C76.2861 72.8524 76.6694 72.551 76.983 72.1452C77.6044 71.3684 77.9122 70.4467 77.9122 69.3742C77.9122 68.1742 77.5638 67.1249 76.8611 66.209C76.1642 65.2988 75.2408 64.8409 74.0967 64.8409H74.0387C73.6089 64.8409 73.1966 64.922 72.7901 65.0843C72.3836 65.2408 71.9887 65.4843 71.5879 65.8032C70.7923 66.4235 70.3916 67.4322 70.3916 68.8293ZM82.6975 72.8177V60.8466C82.6975 59.9075 82.3955 59.2466 81.7974 58.8756V58.8293H83.6383C84.2423 58.8293 84.6372 58.6843 84.8346 58.3945H84.8811V72.9626C85.6012 73.1423 86.2691 73.264 86.873 73.3278C88.1158 73.3278 89.1554 72.951 89.9858 72.1974C90.7234 71.5307 91.1008 70.522 91.1008 69.1713V68.8293C91.1008 68.18 91.0079 67.6119 90.8221 67.1249C90.6363 66.638 90.3633 66.2437 90.009 65.9365C89.3121 65.3626 88.4759 65.0785 87.506 65.0785C86.6349 65.0785 85.9555 65.2467 85.4677 65.5829L86.7337 63.5191C87.4248 63.3568 88.0171 63.2698 88.5049 63.2698C89.5038 63.2698 90.4039 63.5365 91.217 64.0756C92.0242 64.609 92.6398 65.322 93.0463 66.2032C93.4006 66.9974 93.5806 67.8727 93.5806 68.8467V69.1887C93.5806 69.7394 93.4935 70.2669 93.3251 70.7713C93.1567 71.2698 92.9185 71.751 92.6049 72.2206C92.0474 73.0669 91.2402 73.7394 90.1716 74.2321C89.6548 74.4698 89.0857 74.6495 88.4585 74.7829C87.8313 74.9162 87.1634 74.9858 86.4549 74.9858C86.2575 74.9858 86.1006 74.98 85.9787 74.9742C85.4038 74.9336 85.0785 74.9162 84.9972 74.9162C84.7475 74.9162 84.5675 74.9104 84.4455 74.893C84.3178 74.8756 83.9054 74.8061 83.2028 74.6669L81.9774 74.493V74.4467C82.4536 74.2438 82.6917 73.7626 82.6917 73.0032V72.8177H82.6975ZM95.6945 71.6466V71.5481C95.6945 70.3307 96.4146 69.3916 97.8607 68.7307C98.2033 68.5742 98.7782 68.4061 99.5971 68.2322C100.41 68.0583 101.008 67.9075 101.397 67.7916C101.833 67.6872 102.199 67.5249 102.489 67.3104C102.617 67.2292 102.721 67.0959 102.803 66.9162C102.89 66.7423 102.931 66.5452 102.931 66.3249C102.931 65.838 102.681 65.4727 102.181 65.2235C101.67 64.9916 101.142 64.8814 100.59 64.8814C99.6377 64.8814 98.5401 65.1945 97.2915 65.8206L98.8944 63.4148C98.9583 63.4148 99.0221 63.4148 99.086 63.4148C99.1731 63.3916 99.2312 63.3742 99.266 63.3742L99.7248 63.322L100.12 63.2756H100.538C101.885 63.2756 102.989 63.5771 103.866 64.18C104.742 64.7829 105.178 65.6988 105.178 66.9452V71.1365C105.178 71.8901 105.323 72.4235 105.614 72.7423C105.759 72.9162 105.962 73.0554 106.235 73.1597C106.508 73.2698 106.833 73.322 107.216 73.322L106.125 74.9858C105.021 74.893 104.214 74.6322 103.715 74.209C103.192 73.809 102.931 73.1945 102.931 72.3713V68.6264C102.512 68.8814 101.815 69.1133 100.846 69.3394C99.87 69.5597 99.1731 69.7974 98.7434 70.0524C98.3194 70.3017 98.1046 70.7481 98.1046 71.3916C98.1046 72.0003 98.3369 72.4698 98.8073 72.8061C99.0396 72.98 99.3241 73.1191 99.6435 73.2119C99.9629 73.3104 100.311 73.3626 100.683 73.3626C100.997 73.3626 101.275 73.3394 101.519 73.2988C101.763 73.2524 102.1 73.1771 102.536 73.0611L101.101 74.8466C100.851 74.8756 100.625 74.8988 100.439 74.9162C100.259 74.9336 100.067 74.9394 99.8758 74.9394C98.6563 74.9394 97.6516 74.6148 96.8734 73.9655C96.0836 73.3162 95.6945 72.5452 95.6945 71.6466ZM107.966 69.3742C107.966 68.0467 108.297 66.9162 108.947 65.9887C109.597 65.0611 110.457 64.3771 111.514 63.9365C112.577 63.4901 113.726 63.2698 114.969 63.2698C115.875 63.2698 116.741 63.3684 117.565 63.5597V66.0119H117.472C116.77 65.2524 115.788 64.8756 114.528 64.8756C113.407 64.8756 112.443 65.2293 111.642 65.9481C110.846 66.6553 110.445 67.6292 110.445 68.8698V68.9626C110.445 69.5713 110.573 70.122 110.829 70.6264C111.09 71.1307 111.467 71.6061 111.973 72.0525C112.972 72.9278 114.121 73.3684 115.428 73.3684C116.096 73.3684 116.723 73.2698 117.31 73.0785C117.902 72.8814 118.483 72.5916 119.046 72.1974H119.122L117.861 74.4988C116.862 74.7945 115.852 74.9452 114.824 74.9452C112.919 74.9452 111.299 74.4235 109.969 73.3858C108.633 72.3423 107.966 71.009 107.966 69.3742ZM119.656 69.3742C119.656 68.0467 119.981 66.9162 120.637 65.9887C121.288 65.0611 122.147 64.3771 123.204 63.9365C124.267 63.4901 125.417 63.2698 126.66 63.2698C127.566 63.2698 128.437 63.3684 129.256 63.5597V66.0119H129.163C128.46 65.2524 127.478 64.8756 126.218 64.8756C125.097 64.8756 124.133 65.2293 123.332 65.9481C122.536 66.6553 122.136 67.6292 122.136 68.8698V68.9626C122.136 69.5713 122.263 70.122 122.519 70.6264C122.78 71.1307 123.158 71.6061 123.663 72.0525C124.662 72.9278 125.812 73.3684 127.118 73.3684C127.78 73.3684 128.408 73.2698 129 73.0785C129.592 72.8814 130.173 72.5916 130.736 72.1974H130.806L129.546 74.4988C128.547 74.7945 127.537 74.9452 126.509 74.9452C124.604 74.9452 122.984 74.4235 121.654 73.3858C120.324 72.3423 119.656 71.009 119.656 69.3742ZM131.637 69.1423C131.637 68.6611 131.695 68.1858 131.817 67.7278C131.944 67.2698 132.124 66.8003 132.368 66.3249C132.815 65.438 133.541 64.7075 134.529 64.1336C135.522 63.5655 136.695 63.2756 138.048 63.2756H138.24C139.221 63.2756 140.15 63.4901 141.016 63.9191C141.951 64.4003 142.7 65.0843 143.275 65.9771C143.844 66.8756 144.128 67.8843 144.128 69.0206C144.128 70.0872 143.838 71.0727 143.251 71.9887C142.671 72.9046 141.881 73.6235 140.899 74.151C139.912 74.6785 138.884 74.9336 137.816 74.9336C135.905 74.9336 134.395 74.3597 133.292 73.2061C132.182 72.0582 131.637 70.7481 131.637 69.2756V69.1423ZM134.116 68.8293C134.116 69.6525 134.279 70.4003 134.598 71.0901C134.918 71.78 135.371 72.3365 135.957 72.7713C136.544 73.2003 137.165 73.4148 137.821 73.4148L138.013 73.3684C138.594 73.3684 139.105 73.264 139.558 73.0553C140.011 72.8524 140.394 72.551 140.708 72.1452C141.329 71.3684 141.637 70.4467 141.637 69.3742C141.637 68.1742 141.288 67.1249 140.586 66.209C139.883 65.2988 138.965 64.8409 137.821 64.8409H137.763C137.334 64.8409 136.921 64.922 136.515 65.0843C136.108 65.2408 135.713 65.4843 135.318 65.8032C134.517 66.4235 134.116 67.4322 134.116 68.8293Z" fill="white"/>
</g>
<defs>
<clipPath id="clip0_43_3019">
<rect width="145.185" height="80" fill="white"/>
</clipPath>
</defs>
</svg>
