<svg width="69" height="70" viewBox="0 0 69 70" fill="none" xmlns="http://www.w3.org/2000/svg">
<path fill-rule="evenodd" clip-rule="evenodd" d="M32.6899 41.8495V46.4495C32.1599 45.0995 30.4399 42.1195 27.3199 42.1195C24.5799 42.1195 23.6399 44.2195 23.6399 46.2795C23.6399 50.2495 28.0099 57.5095 35.0599 62.4395C37.6299 58.9395 38.3899 54.6395 36.3499 53.2395H40.6199C40.2099 56.8795 38.8599 60.5695 36.7299 63.5295C40.6899 65.9495 45.3799 67.5895 50.5199 67.5895C58.0399 67.5895 62.3899 62.6395 62.3899 56.1395C62.3899 49.2795 55.4199 46.1795 48.3499 43.0195C41.0899 39.7795 33.7399 36.5595 33.7399 28.3495C33.7399 19.6495 41.1099 15.1295 50.6999 15.1295C56.8999 15.1295 62.6999 17.0395 64.6199 17.7695V23.1395C63.0399 20.8795 58.5299 17.2695 50.8499 17.2695C44.0099 17.2695 39.7999 21.0295 39.7999 26.2995C39.7999 31.6095 45.3499 34.3795 51.5599 37.1495C59.4499 40.6795 68.4199 44.3095 68.4199 54.0095C68.4199 63.7195 60.2099 69.7395 50.5799 69.7395C44.8699 69.7395 39.5799 68.0695 35.0399 65.5695C32.5599 68.0995 29.3299 69.7395 25.4899 69.7395C19.3899 69.7395 14.2599 66.8395 14.2599 60.6895C14.2599 55.7795 18.5999 52.8595 20.9999 51.7695C20.0099 49.8295 19.4799 48.0095 19.4799 46.5095C19.4799 42.4095 22.9799 40.1695 27.1699 40.1695C29.6399 40.1595 31.9299 41.2495 32.6899 41.8495ZM33.2198 64.4895C28.1798 61.3295 24.2299 57.1795 21.8799 53.3295C20.8099 54.3595 19.4698 56.2195 19.2198 59.0895C18.8198 63.6795 21.6099 67.4095 26.1699 67.4095C28.9299 67.4095 31.3398 66.2095 33.2198 64.4895ZM13.7799 0.0195312H0.129883C1.22988 0.429531 1.3299 3.18954 1.3299 4.60954V48.5095C1.3299 49.9395 1.21988 52.6895 0.129883 53.0995H9.17987C7.96987 52.6495 7.97986 49.3595 7.97986 48.1195V30.8095H13.7799C27.6499 30.8095 34.6299 23.7595 34.6299 15.4095C34.6399 7.07954 27.6599 0.0195312 13.7799 0.0195312ZM13.0899 28.5695C22.0999 28.5695 27.5299 23.7695 27.5299 15.4195C27.5299 7.07953 22.0999 2.17953 13.0899 2.17953H7.98987V28.5595L13.0899 28.5695Z" fill="#003360"/>
</svg>
