<svg width="156" height="71" viewBox="0 0 156 71" fill="none" xmlns="http://www.w3.org/2000/svg">
<path fill-rule="evenodd" clip-rule="evenodd" d="M153.83 5.58961C151.95 2.59961 148.62 0.599609 144.83 0.599609H11.6899C5.84988 0.619609 1.10986 5.39961 1.10986 11.2296V47.6696C1.10986 53.4896 5.81989 58.2496 11.6399 58.3096H20.6499V68.3796V68.3896C20.6499 69.1696 21.2899 69.8096 22.0699 69.8096C22.5899 69.8096 23.0399 69.5296 23.2899 69.1096L23.4698 68.8296C26.8298 62.7196 32.9899 58.7596 40.3399 58.3096H43.6299H144.9C150.73 58.2696 155.47 53.5196 155.47 47.6696V11.2296C155.47 9.14961 154.87 7.22961 153.83 5.58961Z" fill="#003D78" stroke="white" stroke-width="0.5669" stroke-miterlimit="22.9256"/>
<path fill-rule="evenodd" clip-rule="evenodd" d="M70.83 29.8001C70.83 26.1101 71.39 21.2201 76.2 21.2201C80.94 21.2201 81.5399 25.8001 81.5399 29.8001H70.83ZM122.56 38.7401C122.56 31.1701 115.84 29.6001 109.9 28.2101C106.58 27.4301 103.63 26.7401 102.55 25.0401C102.13 24.3901 102.1 23.5301 102.6 22.9401C103.36 22.0401 105.03 21.5401 107.91 21.6001C110.77 21.6601 113.39 22.4901 115.38 23.3601C115.87 23.5801 116.44 23.4101 116.74 22.9601L118.7 19.9801C117.99 19.6001 113.57 17.3301 107.05 17.3301C98.7699 17.3301 95.0599 21.7801 95.0599 26.1901C95.0599 33.4901 101.53 35.0801 107.23 36.4801C111.41 37.5101 115.03 38.4001 115.24 41.3801C115.22 41.5701 115.2 41.7601 115.18 41.9501C114.57 43.8701 112 44.4701 108.93 44.4701C107.75 44.4701 106.51 44.3501 105.28 44.1501C100.63 43.1701 96.2699 40.5101 94.6199 39.1301C94.2499 38.8201 93.7199 38.8801 93.2999 39.1401C93.2699 39.1601 93.23 39.1701 93.2 39.1901C91.19 40.5401 86.2 43.8401 81.03 44.4501C80.55 44.4901 80.0699 44.5101 79.5999 44.5101C74.1999 44.5101 71.28 41.7301 70.89 36.2801H70.84V35.1901C70.84 34.5601 71.3499 34.0501 71.9799 34.0501H79.84C80.07 34.0601 80.3 34.0701 80.53 34.0701H91.15C91.64 34.0701 92.0599 33.6601 92.0499 33.1701C91.7999 21.2301 83.33 17.3301 76.21 17.3301C69.6 17.3301 60.3099 22.2301 60.3099 33.1301C60.3099 44.9901 69.8199 49.0701 78.5399 48.9201C78.5499 48.9201 78.5499 48.9101 78.5499 48.9101V48.9201C79.2399 48.9201 79.91 48.8701 80.58 48.8101C84.31 48.4601 87.76 47.3001 90.39 46.1501C91.72 45.5701 92.8399 44.9901 93.6799 44.5301C94.6899 45.0701 96.04 45.7001 97.65 46.3101C100.93 47.5701 105.26 48.7301 109.88 48.8001C110.02 48.8001 110.15 48.8101 110.29 48.8101L110.28 48.7801C117.76 48.5101 122.56 44.6301 122.56 38.7401ZM62.53 10.3301C63.13 10.3301 63.5499 10.9201 63.3499 11.4901C61.6199 16.3501 52.39 42.0201 50.58 47.1201C50.35 47.7801 49.72 48.2201 49.02 48.2201H45.3099C44.6199 48.2201 44.01 47.8001 43.76 47.1501C42.4 43.5401 38.64 33.5401 37.09 29.4301L36.4699 31.0601C34.7099 35.7001 31.58 43.9701 30.38 47.1701C30.14 47.8101 29.53 48.2301 28.84 48.2301H25.15C24.43 48.2301 23.79 47.7901 23.53 47.1101L10.3599 12.4301C10.0099 11.5001 10.6899 10.5101 11.6799 10.5101H19.76C20.5 10.5101 21.1499 10.9601 21.4099 11.6501C22.2099 13.7601 27.84 28.7001 29.03 31.8501C29.2 32.2901 29.8099 32.2901 29.9799 31.8501C30.9699 29.2601 33.2 23.4101 33.84 21.7301C33.95 21.4301 33.95 21.1101 33.84 20.8101C33.65 20.3001 30.9399 12.8901 30.7299 12.3301C30.3899 11.4201 31.05 10.4601 32.02 10.4601H39.9199C40.6799 10.4601 41.3499 10.9301 41.6099 11.6401L48.9699 31.8501C49.1199 32.2601 49.7099 32.2601 49.8599 31.8501L57.2299 11.4101C57.4599 10.7601 58.07 10.3301 58.76 10.3301H62.53ZM136.74 30.9501V24.9401C136.74 24.3001 137.26 23.7901 137.89 23.7901H139.95C140.59 23.7901 141.11 23.2701 141.11 22.6301V21.2001C141.11 20.1801 140.29 19.3601 139.27 19.3601H138.58C137.56 19.3601 136.74 18.5401 136.74 17.5201V12.8301C136.74 11.9601 136.19 11.1201 135.34 10.9301C134.47 10.7301 133.62 11.1901 133.29 11.9801C131.58 16.0001 128.21 18.8101 124.21 19.5501C123.35 19.7101 122.72 20.4401 122.72 21.3101V21.8801C122.72 22.9701 123.53 23.7801 124.52 23.7801H125.8C126.46 23.7801 126.99 24.3101 126.99 24.9701V41.7201C126.99 45.3701 129.95 48.3201 133.59 48.3201H135.45H136.75H139.34C140.32 48.3201 141.11 47.5301 141.11 46.5501V44.1001C141.11 43.7201 140.81 43.4201 140.43 43.4201H139.12C137.8 43.4201 136.73 42.3501 136.73 41.0301L136.74 30.9501ZM144.24 13.9401H143.64V13.0201H144.32C144.77 13.0201 144.89 13.1601 144.89 13.4301C144.89 13.7101 144.77 13.9201 144.24 13.9401ZM144.86 14.3101V14.2901C145.34 14.2001 145.6 13.8701 145.6 13.4501C145.6 12.6301 144.9 12.4501 144.25 12.4501H143.07L143.06 16.0701H143.63V14.5001H144.11C144.31 14.5201 144.49 14.5001 144.63 14.6501C144.79 14.8201 144.79 15.1101 144.84 15.4201C144.87 15.6301 144.92 15.8701 144.96 16.0701H145.68C145.55 15.7501 145.52 15.3701 145.47 15.0201C145.42 14.6301 145.36 14.4101 144.86 14.3101ZM144.29 16.8601C145.7 16.8601 146.82 15.7101 146.82 14.3101C146.82 12.9101 145.69 11.7801 144.29 11.7801C142.88 11.7801 141.74 12.9201 141.74 14.3101C141.74 15.7101 142.89 16.8601 144.29 16.8601ZM144.3 11.2301C142.59 11.2301 141.21 12.6101 141.21 14.3101C141.21 16.0201 142.58 17.3901 144.29 17.3901C146 17.3901 147.36 16.0201 147.36 14.3101C147.36 12.6101 146 11.2301 144.3 11.2301Z" fill="white"/>
</svg>
