<svg width="159" height="74" viewBox="0 0 159 74" fill="none" xmlns="http://www.w3.org/2000/svg">
<path fill-rule="evenodd" clip-rule="evenodd" d="M98.8304 10.1809C97.9404 11.6309 96.1804 13.2309 94.0704 14.9909L79.7004 0.630859L65.3304 15.0009C63.2204 13.2409 61.4604 11.6409 60.5704 10.1909C58.9804 16.3709 60.1104 21.5209 63.8304 25.7009C60.7604 25.6409 57.6605 26.3809 54.9805 28.1609C61.1305 29.5409 71.6104 39.5409 79.3204 36.1509C79.4504 36.3209 79.5804 36.5009 79.7004 36.6809C79.8204 36.5009 79.9504 36.3209 80.0804 36.1509C87.7904 39.5409 98.2705 29.5409 104.421 28.1609C101.681 26.3509 98.5205 25.6209 95.3905 25.7109C99.7505 21.8209 100.53 15.8409 98.8304 10.1809Z" stroke="#231F20" stroke-width="0.4252" stroke-miterlimit="22.9256"/>
<path fill-rule="evenodd" clip-rule="evenodd" d="M79.71 33.1211C79.42 26.1611 71.96 20.4311 66.29 15.7811L79.71 2.37109L93.12 15.7811C87.46 20.4211 80 26.1611 79.71 33.1211Z" fill="#E1000F"/>
<path fill-rule="evenodd" clip-rule="evenodd" d="M79.71 33.1211C79.42 26.1611 71.96 20.4311 66.29 15.7811L79.71 2.37109L93.12 15.7811C87.46 20.4211 80 26.1611 79.71 33.1211Z" fill="url(#paint0_linear_0_16)"/>
<path fill-rule="evenodd" clip-rule="evenodd" d="M79.71 2.37109L66.29 15.7811C66.61 16.0411 66.93 16.3111 67.26 16.5711L79.71 4.12109L92.16 16.5711C92.49 16.3111 92.81 16.0411 93.12 15.7811L79.71 2.37109Z" fill="#B1B2B3"/>
<path fill-rule="evenodd" clip-rule="evenodd" d="M80.9402 36.4616C82.6002 34.6116 84.9602 32.9316 87.2302 31.7916C93.6302 28.5516 102.63 23.2016 98.8302 10.1816C102.93 28.7016 85.2602 28.2816 79.7002 36.6716V37.2516C90.2402 40.7616 98.2503 29.5316 104.42 28.1516C98.5003 29.4716 88.5602 38.8116 80.9402 36.4616Z" fill="#231F20"/>
<path fill-rule="evenodd" clip-rule="evenodd" d="M80.5801 33.7408C84.2001 27.2908 94.2601 24.0008 96.7601 16.5508C92.7701 22.9908 83.1101 26.2608 80.5801 33.7408Z" fill="#231F20"/>
<path fill-rule="evenodd" clip-rule="evenodd" d="M92.6503 28.6214C91.2203 29.6414 89.7203 30.4914 88.3003 31.2414C91.9303 29.5514 95.9803 28.4814 99.5503 28.1014C97.1003 28.0114 94.8103 28.1814 92.6503 28.6214Z" fill="#231F20"/>
<path fill-rule="evenodd" clip-rule="evenodd" d="M78.4702 36.4616C76.8102 34.6116 74.4503 32.9316 72.1803 31.7916C65.7903 28.5516 56.7802 23.2016 60.5802 10.1816C56.4802 28.7016 74.1502 28.2816 79.7102 36.6716V37.2516C69.1702 40.7616 61.1602 29.5316 54.9902 28.1516C60.9102 29.4716 70.8502 38.8116 78.4702 36.4616Z" fill="#231F20"/>
<path fill-rule="evenodd" clip-rule="evenodd" d="M78.8303 33.7408C75.2003 27.2908 65.1504 24.0008 62.6504 16.5508C66.6404 22.9908 76.3103 26.2608 78.8303 33.7408Z" fill="#231F20"/>
<path fill-rule="evenodd" clip-rule="evenodd" d="M66.7604 28.6214C68.1904 29.6414 69.6904 30.4914 71.1104 31.2414C67.4804 29.5514 63.4304 28.4814 59.8604 28.1014C62.3104 28.0114 64.6004 28.1814 66.7604 28.6214Z" fill="#231F20"/>
<path fill-rule="evenodd" clip-rule="evenodd" d="M83.42 22.8003V15.0703L79.7 18.7903L75.98 15.0703V22.8003L73.5 20.3203V22.0103C74.9 23.3903 76.18 24.8303 77.22 26.3603V18.0503L79.7 20.5303L82.1801 18.0503V26.3603C83.2101 24.8303 84.49 23.3903 85.89 22.0103V20.3203L83.42 22.8003Z" fill="#B1B2B3"/>
<path fill-rule="evenodd" clip-rule="evenodd" d="M83.4203 11.5703L79.7102 15.2803L75.9902 11.5703H73.5103V20.3303L75.9902 22.8003V15.0803L79.7102 18.7903L83.4203 15.0803V22.8003L85.9003 20.3303V11.5703H83.4203Z" fill="white"/>
<path fill-rule="evenodd" clip-rule="evenodd" d="M143.891 68.2616H145.311L151.411 58.0217V72.9316L151.94 73.4617H158.431V47.4617L157.901 46.9316H149.37L144.281 55.8817L139.181 46.9316H138.97H130.44V72.9316L130.97 73.4617H137.45V57.5016L143.891 68.2616ZM149.61 47.3616H157.47V72.5116H151.83V55.0816L144.551 67.3116H144.171H143.791L136.51 55.0816V72.5116H130.87V47.3616H138.73L144.181 56.9417L149.61 47.3616Z" fill="#231F20"/>
<path fill-rule="evenodd" clip-rule="evenodd" d="M98.2104 67.4007L97.8505 67.6407C96.4905 68.5507 94.6505 69.1007 92.9305 69.1007C91.2205 69.1007 89.7905 68.5807 88.6805 67.5907C87.2305 65.9507 86.4504 63.3707 86.4504 59.9907C86.4504 53.9807 89.8305 51.2907 93.1805 51.2907C94.8405 51.2907 96.3604 51.7707 97.8304 52.7507L98.1904 52.9907L100.58 49.2907L100.051 48.7607L99.7305 48.5207C98.4805 47.5807 96.2405 46.4707 92.6505 46.4707C84.2005 46.4707 78.3105 51.8107 78.3105 59.4707C78.3105 63.9507 79.7305 67.5007 82.3105 69.9007C84.7605 72.5007 88.4305 73.9307 93.1005 73.9307C96.5405 73.9307 99.4604 72.9007 100.83 71.8807L101.151 71.6407L98.7505 67.9407L98.2104 67.4007ZM92.9305 69.5307C95.0405 69.5307 96.9105 68.7907 98.0905 68.0007L100.041 71.0107C98.8005 71.9407 96.0005 72.9807 92.5605 72.9807C84.0505 72.9807 78.7305 68.2007 78.7305 59.4707C78.7305 51.8107 84.8005 46.9007 92.6505 46.9007C96.0905 46.9007 98.2305 47.9407 99.4805 48.8707L97.5405 51.8807C96.3605 51.0907 94.7705 50.3507 92.6605 50.3507C89.0405 50.3507 85.5105 53.2107 85.5105 59.4807C85.5005 66.5007 88.7205 69.5307 92.9305 69.5307Z" fill="#231F20"/>
<path fill-rule="evenodd" clip-rule="evenodd" d="M102.99 73.4614H109.27L119.38 57.8514V72.9314L119.91 73.4614H127.25V47.4714L126.72 46.9414H120.45L110.34 62.5514V47.4714L109.81 46.9414H102.47V72.9314L102.99 73.4614ZM120.49 47.3614H126.11V72.5114H119.61V55.0814L108.33 72.5114H102.7V47.3614H109.2V64.7914L120.49 47.3614Z" fill="#231F20"/>
<path fill-rule="evenodd" clip-rule="evenodd" d="M1.51025 73.4599H7.99023V57.4899L14.4203 68.2599H15.8502L21.9502 58.0199V72.9299L22.4702 73.4599H36.6102L39.1503 67.2299H46.4402L48.7703 72.9299L49.3003 73.4599H56.7603H56.7903H64.1002V62.6199L72.8802 72.9399L73.4103 73.4699H82.4702L71.4702 60.4699L82.4702 47.4699L81.9402 46.9399H72.8702L64.0902 57.2499V47.4599L63.5603 46.9299H56.2202V72.1199L45.7803 47.4499L45.2502 46.9199H39.5702L28.9402 72.0499V47.4499L28.4103 46.9199H19.8802L14.7903 55.8699L9.71021 46.9199H9.48022H0.950195V72.9199L1.51025 73.4599ZM42.8003 57.4399L44.6803 62.7799H40.9203L42.8003 57.4399ZM56.7703 73.3799L56.5802 72.9399L56.7703 73.3799ZM73.0902 47.3599H81.0503L70.4103 59.9299L81.0503 72.5099H73.0902L63.1603 60.8499V72.5099H56.6603V59.9299V47.3599H63.1603V59.0199L73.0902 47.3599ZM39.8802 47.3599C41.5902 47.3599 43.2902 47.3599 45.0002 47.3599L55.6403 72.5099H49.0702L46.5303 66.2799H38.3602L35.8202 72.5099H29.2502L39.8802 47.3599ZM42.4402 55.1599L45.2703 63.1999H39.6102L42.4402 55.1599ZM20.1603 47.3599H28.0303V72.5099H22.3903V55.0799L15.1002 67.3099H14.7202H14.3402L7.05029 55.0799V72.5099H1.41028V47.3599H9.27026L14.7102 56.9399L20.1603 47.3599Z" fill="#231F20"/>
<defs>
<linearGradient id="paint0_linear_0_16" x1="79.7021" y1="33.1185" x2="79.7021" y2="2.36769" gradientUnits="userSpaceOnUse">
<stop stop-color="#636362"/>
<stop offset="1" stop-color="white"/>
</linearGradient>
</defs>
</svg>
