<svg width="180" height="60" viewBox="0 0 180 60" fill="none" xmlns="http://www.w3.org/2000/svg">
<path fill-rule="evenodd" clip-rule="evenodd" d="M0.690002 44.9888L0 45.8288H120.86L121.55 44.9787H0.690002V44.9888ZM141.68 44.9987L141 45.8387H150.72L151.4 44.9987H141.68ZM7.94998 23.0188L3.25998 24.7487C3.35998 21.8087 4.47 18.2488 6.66 15.5188C8.96 12.6288 13.38 8.73875 20.86 6.37875C27.23 4.36875 33.21 4.18875 37.85 4.87875L35.5 7.45875C31.12 7.08875 26.26 7.58875 21.69 9.38875C16.02 11.6187 10.84 16.3587 9.34998 19.4287C8.75998 20.6587 8.25998 21.8488 7.94998 23.0188ZM42.05 9.64875C41.79 9.91875 29.17 23.8288 18.83 35.3288C15.47 39.0588 13.85 38.8987 13.85 38.8987C13.85 38.8987 26.83 38.6987 35.24 33.1387C40.32 29.7887 43.69 25.3987 45.22 20.7487C47.36 14.2887 44.5 11.0288 42.05 9.64875ZM81.29 32.1288C80.38 32.8988 76.2 36.4788 73.45 37.9388C71.2 39.1288 69.42 38.9987 68.95 38.4187C67.7 36.8187 70.05 32.3087 70.26 31.8687C70.26 31.8687 66.08 35.4587 62.86 37.3587C60.06 38.9987 58.22 39.1188 57.04 38.6288C55.42 37.9688 55.65 35.3888 55.65 35.4088C55.65 35.4088 50.31 39.3987 47.36 38.8087C44.88 38.3087 45.25 35.1488 45.74 33.7088C47.23 29.2488 52.47 24.0687 55.76 21.9787C65.46 15.8087 67.05 21.0588 67.13 21.1588L68.58 19.8488H72.45C72.86 19.8488 72.74 20.1788 72.65 20.2988C72.41 20.5888 72.16 20.8788 71.9 21.1588C71.3 21.8188 63.36 30.2387 60.36 34.3087C59.52 35.4487 59.52 35.9487 60.06 36.1687C61.15 36.5987 64.76 34.1688 66.25 32.9688C68.76 30.9388 71.35 28.0088 71.84 27.4688C73.36 25.8188 74.86 24.1388 76.35 22.4388C77.06 21.6388 77.7 20.7787 78.46 19.8387L82.5 19.8288C83.26 19.8288 82.78 20.3487 82.63 20.5287C82.07 21.2187 81.46 21.8988 80.9 22.5988C80.48 23.1388 78.57 25.3288 76.85 27.7688C75.41 29.8288 73.46 32.6888 72.75 34.3488C72.43 35.0788 72.5 35.4487 72.8 35.6987C73 35.8587 76.23 33.7188 79.8 30.4388C81.97 28.4388 84.3 26.2187 85.95 24.2787C88.11 21.7487 88.46 20.0388 88.51 19.8188H92.81C93.52 19.8188 92.91 20.4288 92.62 20.7388C92.51 20.8188 86.43 27.8288 81.29 32.1288ZM57.79 30.9688C60.66 28.2287 66.26 22.3088 64.46 21.0988C63.37 20.3688 59.47 22.1287 54.32 27.9187C50.97 31.6887 49.08 35.2587 49.89 36.0287C50.45 36.5587 52.46 36.0687 57.79 30.9688ZM106.23 12.1188C105.5 11.4788 104.06 11.9087 103.04 13.0887C102.02 14.2687 101.78 15.7388 102.52 16.3788C103.26 17.0188 104.69 16.5887 105.72 15.4187C106.74 14.2387 106.97 12.7588 106.23 12.1188ZM137.41 25.1787C138.91 21.2387 137.08 18.9487 133.88 18.9987C130.21 19.0487 125.22 22.6588 121.3 26.5988C118.55 29.3688 117.49 31.3288 117.18 31.7388C117.05 31.8988 114.75 34.0587 112.62 35.4487C112.62 35.4487 110.88 36.6087 110.09 36.0587C109.14 35.4087 110.5 33.7487 110.5 33.7487C112.78 30.9087 115.13 28.3188 115.64 27.7688C116.2 27.1588 116.78 26.5487 117.34 25.9487C118.35 24.8587 134.97 6.62875 134.97 6.62875H130.47C128.15 9.15875 125.74 11.7687 123.44 14.3087C121.11 16.8587 118.84 19.4487 116.39 21.8987C116.39 21.8987 116.35 18.9888 112.88 18.9888C109.72 18.9888 105.88 21.7087 103.21 24.0087C99.49 27.1987 96.14 31.2587 94.6 32.5587C91.42 35.2287 88.58 36.6287 87.93 36.1087C87.6 35.8387 88.05 35.1887 88.3 34.8387C88.74 34.2187 90.95 31.6687 93.28 29.0887C96.37 25.6587 99.83 21.9887 100.88 20.8587C101.08 20.6387 101.74 19.8188 101.1 19.8188H96.97C95.96 20.9188 91.76 25.4388 88.52 29.0988C87.47 30.2788 85.11 32.8087 84.26 34.7887C82.42 39.0887 86.11 39.3087 88.29 38.4688C91.18 37.3587 95 34.4688 95 34.4688C94.99 34.5987 94.41 38.1287 96.98 38.7287C100.95 39.6487 105.33 35.4187 105.33 35.4187C105.33 35.4187 104.05 38.3287 107.37 38.8387C108.19 38.9687 110.03 38.7888 111.87 37.8188C114.24 36.5788 116.39 34.6588 116.39 34.6588C116.39 34.6588 115.49 38.2388 119.25 38.8788C121.56 39.2688 126.31 37.5188 130.11 34.2988C132.16 32.5388 135.96 28.9587 137.41 25.1787ZM114.07 21.0988C115.87 22.3088 110.28 28.2287 107.41 30.9688C102.07 36.0687 100.06 36.5587 99.5 36.0287C98.69 35.2587 100.58 31.6887 103.93 27.9187C109.08 22.1287 112.98 20.3688 114.07 21.0988ZM50.3 0.46875H45.53C45.51 0.48875 28.36 19.3887 15.7 33.4787C12.57 36.9687 8.87998 38.0387 6.03998 38.2587L4.78 39.8188C5.3 39.8988 9.96999 40.7187 14.18 40.8687C15.32 40.9087 28.15 41.5588 38.52 35.5488C41.37 33.8988 46.24 29.3587 48.56 24.2587C51.05 18.7787 50.32 14.7687 49.8 12.9688C48.85 9.72875 45.81 7.43875 44.71 6.79875C44.7 6.78875 48.79 2.11875 50.3 0.46875ZM134.73 21.1787C135.94 22.2087 133.85 26.3887 130.07 30.5087C126.29 34.6187 122.24 37.1288 121.03 36.0988C119.82 35.0588 121.91 30.8887 125.69 26.7587C129.48 22.6387 133.52 20.1387 134.73 21.1787ZM174.58 6.17875C178.1 5.37875 179.85 6.42875 179.88 6.44875L179.07 7.75875C178.97 7.90875 178.8 7.80875 178.55 7.69875C178.32 7.60875 177.38 7.07875 175.24 7.60875C173.83 7.95875 172.49 9.25875 171.82 9.81875C170.94 10.5487 167.95 13.8187 165.56 16.3887C163.12 19.0187 161.18 21.3088 161.14 21.3788L171.11 21.4987L169.04 23.9787L158.87 23.8188C158.41 24.2788 133.7 50.8288 133.7 50.8288H129.31L154.24 23.7988L148.31 23.8188C147.84 24.2788 123.13 50.8288 123.13 50.8288H118.75L143.67 23.7988L138.74 23.7388L141.28 21.2988L146.04 21.3687C146.04 21.3687 152.98 13.8988 157.64 9.90875C158.78 8.92875 161.15 7.14875 163.93 6.50875C167.44 5.70875 169.19 6.75875 169.23 6.77875C168.59 7.09875 167.98 7.46875 167.44 7.84875C166.94 7.69875 166.03 7.57875 164.59 7.93875C163.18 8.28875 161.84 9.58875 161.17 10.1488C160.29 10.8788 157.39 13.8087 155 16.3887C152.55 19.0187 150.61 21.3088 150.57 21.3788L156.61 21.3587C156.61 21.3587 163.64 13.5487 168.3 9.56875C169.44 8.59875 171.8 6.80875 174.58 6.17875ZM12.35 55.6487V55.6288C12.35 53.4188 14 51.6187 16.35 51.6187C17.78 51.6187 18.64 52.1188 19.38 52.8288L18.51 53.8387C17.89 53.2587 17.22 52.8788 16.34 52.8788C14.86 52.8788 13.78 54.0987 13.78 55.6187V55.6387C13.78 57.1587 14.86 58.3987 16.34 58.3987C17.29 58.3987 17.9 58.0087 18.57 57.3887L19.45 58.2787C18.64 59.1187 17.75 59.6487 16.3 59.6487C14.03 59.6287 12.35 57.8687 12.35 55.6487ZM22.22 51.7487H23.58V59.5087H22.22V51.7487ZM26.3 55.6487V55.6288C26.3 53.4588 27.96 51.6187 30.3 51.6187C31.65 51.6187 32.48 51.9987 33.28 52.6687L32.42 53.6987C31.82 53.1887 31.23 52.8687 30.25 52.8687C28.82 52.8687 27.73 54.1187 27.73 55.6087V55.6288C27.73 57.2188 28.78 58.3987 30.37 58.3987C31.1 58.3987 31.77 58.1687 32.24 57.8087V56.3587H30.26V55.1687H33.56V58.4287C32.8 59.0787 31.7 59.6387 30.32 59.6387C27.9 59.6287 26.3 57.9087 26.3 55.6487ZM41.3 56.4187L39.96 53.3188L38.63 56.4187H41.3ZM39.35 51.6888H40.61L44.02 59.4987H42.58L41.79 57.6288H38.12L37.32 59.4987H35.92L39.35 51.6888ZM49.99 55.5887C50.97 55.5887 51.59 55.0787 51.59 54.2887V54.2688C51.59 53.4388 50.99 52.9888 49.98 52.9888H48V55.5887H49.99V55.5887ZM46.63 51.7487H50.09C51.07 51.7487 51.83 52.0387 52.33 52.5287C52.74 52.9487 52.97 53.5287 52.97 54.1987V54.2188C52.97 55.4887 52.2 56.2588 51.12 56.5688L53.21 59.5087H51.6L49.69 56.8087H47.98V59.5087H46.62V51.7487H46.63ZM55.92 51.7487H61.67V52.9688H57.28V54.9888H61.17V56.2088H57.28V58.2887H61.72V59.5087H55.92V51.7487ZM66.52 53.0087H64.06V51.7487H70.35V53.0087H67.89V59.4987H66.52V53.0087V53.0087ZM74.97 53.0087H72.51V51.7487H78.8V53.0087H76.34V59.4987H74.97V53.0087V53.0087ZM81.52 51.7487H87.27V52.9688H82.88V54.9888H86.77V56.2088H82.88V58.2887H87.32V59.5087H81.52V51.7487ZM89.7 58.3687L90.52 57.3987C91.26 58.0387 92.01 58.4088 92.97 58.4088C93.81 58.4088 94.34 58.0187 94.34 57.4287V57.4088C94.34 56.8588 94.03 56.5588 92.59 56.2188C90.94 55.8187 90.01 55.3287 90.01 53.8987V53.8788C90.01 52.5488 91.12 51.6288 92.66 51.6288C93.79 51.6288 94.69 51.9687 95.47 52.6087L94.74 53.6387C94.04 53.1187 93.35 52.8387 92.64 52.8387C91.84 52.8387 91.38 53.2487 91.38 53.7587V53.7787C91.38 54.3787 91.73 54.6387 93.22 54.9987C94.86 55.3987 95.71 55.9888 95.71 57.2688V57.2887C95.71 58.7387 94.57 59.6087 92.94 59.6087C91.75 59.6087 90.63 59.1987 89.7 58.3687Z" fill="#231F20"/>
</svg>
