<svg width="163" height="69" viewBox="0 0 163 69" fill="none" xmlns="http://www.w3.org/2000/svg">
<path fill-rule="evenodd" clip-rule="evenodd" d="M145.01 31.79C147.63 30.74 150.07 28.67 151.24 26.94C151.94 25.91 153.17 28.42 152.44 29.42C151.35 30.92 148.41 32.52 146.38 32.97C145.3 33.21 144.38 32.04 145.01 31.79ZM55.9002 1.45997L37.6101 44.47C31.5601 58.69 24.4601 68.42 13.3001 68.74C6.54014 68.93 1.86016 65.26 1.01016 60.68C0.570159 58.34 3.41012 56.15 3.47012 57.42C3.74012 63.3 7.83015 67.08 13.2501 66.93C23.1802 66.65 28.2902 56.86 33.9502 43.46L51.5401 1.76996C52.0001 0.669964 56.2702 0.599966 55.9002 1.45997ZM61.4201 42.87C56.0701 42.26 50.0701 45.29 47.9101 49.31C46.7101 51.55 47.4702 53.07 49.4602 52.73C53.5102 52.05 59.4201 46.4 61.4201 42.87ZM105.51 41.87C100.66 40.65 93.9402 42.86 91.3802 47.25C90.1102 49.44 90.8802 51.92 93.7802 51.36C97.1902 50.7 101.37 46.96 105.51 41.87ZM138.67 46.23C141.31 44.89 143.6 43.3 145.16 41.5C146.48 39.97 145.99 38.55 144.13 38.95C142.48 39.3 140.38 40.85 139.31 43.14C138.89 44.05 138.65 45.23 138.67 46.23ZM109.88 39.32C117.5 28.86 124.14 15.61 125.34 9.53997C126.05 5.90997 123.59 5.15997 121.5 7.40997C116.93 12.36 109.29 25.74 107.07 35.36C106.68 37.05 106.42 38.64 106.29 40.12C101.56 38.71 93.4002 39.91 88.8402 45.06C83.6402 48.28 72.9801 53.4 66.9301 53.42C63.3901 53.43 61.9002 50 64.5302 44.34C64.7702 43.83 64.2701 43.38 63.6001 43.11C63.9001 42.61 63.8301 41.4 63.1101 41.18C55.6401 38.97 47.4201 44.4 44.6101 48.36C41.8801 52.21 42.7001 56.56 48.2301 55.89C51.6801 55.47 56.3102 51.83 59.5302 48.36C59.0902 52.64 61.4302 55.56 66.8302 55.4C72.4302 55.24 81.1802 51.34 86.9402 48.16C85.7702 51.94 88.5702 55.65 94.6902 53.56C98.2302 52.35 102.29 48.7 106.28 43.93C106.88 49.87 110.6 53.31 118.57 53.23C123.02 53.19 129.54 51.88 135.48 49.61C136.54 51.57 138.8 52.76 142.67 52.76C149.67 52.76 158.32 49.24 161.86 46.82C163.02 46.03 162.64 44.47 161.67 45.11C158.11 47.44 150.05 50.67 144.02 50.63C141.3 50.61 139.85 49.69 139.12 48.05C142.5 46.43 145.47 44.47 147.42 42.24C150.04 39.24 148.81 36.29 144.92 36.69C141.1 37.08 136.87 39.92 135.4 43.8C134.95 44.99 134.69 46.52 134.91 47.88C129.22 50.09 122.82 51.29 118.66 51.26C112.32 51.25 109.13 46.75 109.88 39.32ZM122.78 9.22997C123.49 8.27997 123.72 8.53996 123.44 9.58996C121.97 15.23 116.81 25.64 110.77 34.67C113.02 26.37 119.17 14.03 122.78 9.22997Z" fill="#00549B"/>
</svg>
